<svg width="36" height="36" viewBox="0 0 36 36" fill="none" xmlns="http://www.w3.org/2000/svg">
<path d="M33.7123 31.0005L4.91827 1.72776C3.97992 0.773815 2.53463 0.696482 1.69011 1.55503L1.52915 1.71867C0.68464 2.57722 0.760709 4.04654 1.69906 5.00049L30.4931 34.2732C31.4314 35.2272 32.8767 35.3045 33.7212 34.4459L33.8822 34.2823C34.7267 33.4238 34.6507 31.9544 33.7123 31.0005Z" fill="black"/>
<path d="M31.0819 1.72705L2.28789 30.9998C1.34955 31.9537 1.27348 33.423 2.11799 34.2816L2.27895 34.4452C3.12347 35.3038 4.56876 35.2265 5.5071 34.2725L34.3011 4.99978C35.2395 4.04583 35.3156 2.57651 34.471 1.71796L34.3101 1.55433C33.4656 0.695774 32.0203 0.773107 31.0819 1.72705Z" fill="black"/>
</svg>
