<svg width="17" height="16" viewBox="0 0 17 16" fill="none" xmlns="http://www.w3.org/2000/svg">
<path d="M8.2185 6.8756e-07C3.67776 -0.00183544 0 3.67409 0 8.21116C0 11.7989 2.30067 14.8487 5.5047 15.9688C5.93619 16.0771 5.87009 15.7705 5.87009 15.5612V14.1382C3.37847 14.4301 3.27748 12.7813 3.1104 12.5059C2.77255 11.9293 1.97384 11.7824 2.21253 11.507C2.77989 11.2151 3.35827 11.5804 4.02846 12.5701C4.5132 13.288 5.4588 13.1669 5.93803 13.0475C6.04269 12.616 6.2667 12.2304 6.57517 11.9311C3.99357 11.4684 2.9176 9.89305 2.9176 8.0202C2.9176 7.11132 3.21689 6.27588 3.80445 5.60202C3.42988 4.49116 3.83934 3.54005 3.89442 3.39867C4.96121 3.30319 6.07023 4.1625 6.15653 4.23043C6.76245 4.06702 7.45467 3.98072 8.22952 3.98072C9.00803 3.98072 9.70209 4.07069 10.3135 4.23594C10.521 4.07804 11.5492 3.33991 12.5407 3.42988C12.594 3.57127 12.9943 4.50035 12.6417 5.59651C13.2366 6.27221 13.5396 7.11499 13.5396 8.02571C13.5396 9.90223 12.4563 11.4795 9.86734 11.9348C10.0891 12.1529 10.2652 12.413 10.3853 12.6999C10.5054 12.9867 10.5671 13.2947 10.5669 13.6057V15.6713C10.5816 15.8366 10.5669 16 10.8423 16C14.0941 14.9038 16.4352 11.832 16.4352 8.21299C16.4352 3.67409 12.7556 6.8756e-07 8.2185 6.8756e-07V6.8756e-07Z" fill="black"/>
</svg>
