<svg width="16" height="16" viewBox="0 0 16 16" fill="none" xmlns="http://www.w3.org/2000/svg">
<path d="M13.63 13.6355H11.2635V9.922C11.2635 9.0365 11.245 7.8985 10.026 7.8985C8.792 7.8985 8.604 8.859 8.604 9.8565V13.635H6.2345V5.9995H8.5105V7.041H8.541C8.859 6.4395 9.6325 5.807 10.7865 5.807C13.187 5.807 13.6325 7.3875 13.6325 9.4425V13.635L13.63 13.6355ZM3.5575 4.956C3.37664 4.95607 3.19754 4.92045 3.03046 4.85119C2.86339 4.78193 2.71162 4.68039 2.58384 4.55239C2.45607 4.42438 2.35481 4.27243 2.28585 4.10523C2.2169 3.93802 2.18161 3.75886 2.182 3.578C2.1823 3.30578 2.2633 3.03975 2.41478 2.81356C2.56626 2.58737 2.7814 2.41118 3.03301 2.30725C3.28461 2.20333 3.56138 2.17634 3.82833 2.22971C4.09527 2.28307 4.3404 2.41439 4.53271 2.60705C4.72503 2.79972 4.8559 3.04508 4.90878 3.31212C4.96166 3.57916 4.93417 3.85589 4.82979 4.1073C4.72541 4.35872 4.54882 4.57354 4.32236 4.72461C4.0959 4.87567 3.82972 4.9562 3.5575 4.956V4.956ZM4.7445 13.6355H2.37V6H4.7445V13.6355ZM14.818 0H1.18C0.5285 0 0 0.5155 0 1.1535V14.847C0 15.485 0.5285 16.0005 1.18 16.0005H14.8155C15.466 16.0005 16 15.485 16 14.847V1.1535C16 0.5155 15.466 0 14.8155 0H14.818Z" fill="black"/>
</svg>
